<svg xmlns="http://www.w3.org/2000/svg" viewBox="0 0 166 43">
  <defs>
    <style>
      .cls-1 {
        fill: #613d30;
      }
    </style>
  </defs>
  <path id="Shape_720" data-name="Shape 720" class="cls-1" d="M616.583,1685.21a21.409,21.409,0,0,0-1.947-7.264l9.271,5a1.492,1.492,0,0,0,.051.473,33.238,33.238,0,0,1-.768,11.105,26.515,26.515,0,0,0,2.355-13.631,25.725,25.725,0,0,0-2.1-8.263l9.886,6.789c.05.317.05.685.1,1a33.182,33.182,0,0,1-1.076,12.21,26.948,26.948,0,0,0-.307-25.579s20.641,14.9,22.024,20.685c1.024,4.369-1.947,8.368-1.947,8.368s-1.588-11.369-41.128,5.9A22.122,22.122,0,0,0,616.583,1685.21Zm153.4,9.895c-.716-.895-5.326-9.053-5.326-9.053h1.434c1.588,0,2.971-1.473,2.971-3.632v-1.105c0-2.157-1.537-3.894-2.971-3.894h-2.356a.5.5,0,0,0-.461.211,1.521,1.521,0,0,0-.2.684v15.422a1.134,1.134,0,0,0,.563,1l1.229.684v.316h-7.324v-.316l1.229-.684a1.251,1.251,0,0,0,.563-1v-15.422a1.133,1.133,0,0,0-.563-1l-1.229-.684v-.264h8.655c3.534,0,6.659.948,6.659,5.527a4.927,4.927,0,0,1-5.071,5.1,5.246,5.246,0,0,0,2.253.842c2,3.79,4.4,8.316,6.966,9.737a5.083,5.083,0,0,1-1.1.115A8.678,8.678,0,0,1,769.982,1695.1Zm-60.95,0c-.717-.895-5.327-9.053-5.327-9.053h1.435c1.588,0,2.97-1.473,2.97-3.632v-1.105c0-2.157-1.536-3.894-2.97-3.894h-2.356a.493.493,0,0,0-.461.211,1.521,1.521,0,0,0-.205.684v15.422a1.135,1.135,0,0,0,.563,1l1.229.684v.316h-7.324v-.316l1.229-.684a1.253,1.253,0,0,0,.563-1v-15.422a1.135,1.135,0,0,0-.563-1l-1.229-.684v-.264h8.656c3.533,0,6.658.948,6.658,5.527a4.926,4.926,0,0,1-5.071,5.1,5.251,5.251,0,0,0,2.254.842c2,3.79,4.4,8.316,6.965,9.737a5.084,5.084,0,0,1-1.1.115A8.676,8.676,0,0,1,709.033,1695.1Zm-32.063-9.053a9.741,9.741,0,1,1,9.732,10.158A9.871,9.871,0,0,1,676.969,1686.052Zm4-.052c0,4.79,2.3,8.948,5.736,8.948s5.737-4.211,5.737-8.948c0-4.79-2.3-8.948-5.737-8.948S680.965,1681.263,680.965,1686Zm34.52,8.632v-4.842h.666c.769,3.368,3.073,5.053,5.072,5.053,2.048,0,3.379-1.053,3.379-3.316,0-4.474-8.912-3.211-8.912-9.9,0-3.737,3.176-5.737,6.351-5.737a13.3,13.3,0,0,1,5.224,1.264v4.421h-.513c-.972-3.685-2.816-4.527-4.66-4.527a3.335,3.335,0,0,0-3.329,3c0,5,9.424,2.842,9.373,10,0,2.894-2.3,6.106-7.017,6.106A14.542,14.542,0,0,1,715.486,1694.632ZM657.25,1686c0-6.106,4.918-10.369,11.165-10.105a15.325,15.325,0,0,1,6.71,1.948v5.262h-.769c-.717-3.263-2.612-5.894-5.89-5.894-4,0-7.171,4.053-7.171,8.789s3.125,8.789,7.171,8.789c3.278,0,5.172-2.684,5.89-5.9h.769v5.264a14.609,14.609,0,0,1-6.71,1.947c-.184.008-.366.012-.547.012C661.883,1696.116,657.25,1691.926,657.25,1686Zm91.426,9.737v-.316l1.229-.684a1.254,1.254,0,0,0,.563-1v-15.421a1.135,1.135,0,0,0-.563-1l-1.229-.684v-.316H756v.316l-1.229.684a1.253,1.253,0,0,0-.563,1v15.421a1.135,1.135,0,0,0,.563,1l1.229.684v.316Zm-8.707,0v-.316l1.229-.684c.05-.053.1-.053.153-.105a1.136,1.136,0,0,0,.41-.895.913.913,0,0,0-.051-.368l-1.537-3.9h-6.556l-1.536,3.9a.994.994,0,0,0-.1.42,1.2,1.2,0,0,0,.615,1.053l1.075.579v.316h-5.634v-.316l1.229-.684a.945.945,0,0,0,.512-.579l6.966-17.842H739l6.966,17.842a1.363,1.363,0,0,0,.512.579l1.229.684v.316Zm-5.891-7.684h5.429l-2.714-6.947Zm-115.191-9.316c.461-3.21-2.459-7.052-2.459-7.052l5.532,3.052a33.452,33.452,0,0,1,1.536,5.158Zm18.49-9.526c.615-3-2.817-10.21-2.817-10.21,17.722,11.473,12.805,18.105,12.805,18.158C646.392,1672.21,637.377,1669.21,637.377,1669.21Zm59.209,7.158v0Zm-68.837-2.526c.461-3.21-2.561-8.052-2.561-8.052l5.89,4a32.961,32.961,0,0,1,1.793,6.052Z" transform="translate(-611 -1659)"/>
</svg>
