<svg xmlns="http://www.w3.org/2000/svg" viewBox="0 0 137 31.999">
  <defs>
    <style>
      .cls-1 {
        fill: #613d30;
      }
    </style>
  </defs>
  <path id="Shape_710" data-name="Shape 710" class="cls-1" d="M1111.968,1688.039h-7.523c.065-3.755,1-6.021,1.865-6.8a4.982,4.982,0,0,1,3.266-1.509c2.276.02,4.081,2.6,4.141,5.135C1113.745,1686.013,1113.951,1688.039,1111.968,1688.039Zm-7.426,1.625H1114.6a3.24,3.24,0,0,0,3.4-3.332,8.45,8.45,0,0,0-2.151-5.514,8.045,8.045,0,0,0-6.38-2.767,8.675,8.675,0,0,0-6.7,3.144,10.269,10.269,0,0,0-2.761,7.255c.018,3.078.713,5.7,2.729,7.723a9.088,9.088,0,0,0,7.237,2.825,8.9,8.9,0,0,0,4.718-1.722,8.6,8.6,0,0,0,2.9-4.433c-.226-.278-.317-.641-.676-.636a1.266,1.266,0,0,0-.984.709c-1.351,2.492-3.086,3.877-5.508,3.877C1106.114,1696.795,1104.542,1693.345,1104.542,1689.664ZM1084.5,1678.5l5.92,19.986h3.551a83.5,83.5,0,0,1,7.786-20.431h-2.322a77.985,77.985,0,0,0-6.148,15.829l-4.781-15.385Zm-5.92,0h3.961v19.986h-3.961V1678.5Zm2.027-6.722a2.188,2.188,0,1,1-2.209,2.189A2.2,2.2,0,0,1,1080.613,1671.774Zm-10.62-1.165c1.894-.895,4.037-2,5.7-2.1v29.975h-3.962V1673.7c0-1.523-.524-2.773-1.649-2.8-.145,0-.255-.222-.092-.3Zm-18.91,18.086a10.55,10.55,0,0,0,2.683,7.413,8.449,8.449,0,0,0,6.49,2.89,9.131,9.131,0,0,0,6.865-2.956,10.818,10.818,0,0,0,2.6-7.734,10.024,10.024,0,0,0-2.807-7.67,8.121,8.121,0,0,0-2.921-1.982,11.193,11.193,0,0,0-3.753-.6,8.109,8.109,0,0,0-6.53,2.717c-1.848,1.982-2.626,4.782-2.626,7.926Zm14.365.5a10.654,10.654,0,0,1-1.4,5.6,4.306,4.306,0,0,1-3.776,2.242c-1.6-.025-2.993-.961-3.939-2.908-.877-1.8-.849-3.961-.849-6.4a10.694,10.694,0,0,1,1.173-5.652,4.376,4.376,0,0,1,3.808-2.29c1.659,0,2.907.964,3.843,2.922A14.958,14.958,0,0,1,1065.447,1689.2Zm-41.326-8.914c1.7.315,1.747,1.892,1.747,3.66v14.541h3.874v-16.166c1.213-.779,2.619-1.849,3.993-1.847,1.485,0,1.743,2.518,1.743,3.794v14.219h3.923v-16.157c1.409-.905,1.908-1.8,3.96-1.759,1.461.031,1.679,1.7,1.679,2.836v15.08h4.02v-14.718c0-2.556-.6-5.712-4.3-5.712-2.12,0-3.038.444-5.541,2.507a4.694,4.694,0,0,0-3.763-2.507c-2.635,0-3.983,1.286-5.615,2.306v-2.306a8.627,8.627,0,0,0-5.718,2.23Zm-7.254-9.673c1.894-.895,4.038-2,5.7-2.1v29.975h-3.961V1673.7c0-1.523-.524-2.773-1.649-2.8C1016.816,1670.9,1016.706,1670.685,1016.867,1670.609Zm-5.059,27.873h3.946v-19.509c-.839-.623-3.764-.715-4.427-.715-7.438,0-13.275,4.618-13.275,12.778,0,6.039,4.559,7.963,7.557,7.963,2.939,0,4.568-1.2,5.27-2.183.211-.292.062-.789-.321-.736-.491.07-1.16,1.323-3.594,1.389a4.908,4.908,0,0,1-2.82-.847c-1.269-.855-2.26-3.572-2.291-5.761-.06-4.179,2.245-10.573,7.217-10.994a6.391,6.391,0,0,1,2.548.05c.508.252.192.362.192.715v17.85Zm-26.557.061v-29.231a8.444,8.444,0,0,1,3.079-.739c4.347-.015,7.554,3.419,7.49,8.75-.075,6.235-3.213,8.542-5.606,8.707-2.763.189-3.225-.775-4.206-.744-.415.014-.914.37-.188,1.012,1.385,1.223,4.13,1.258,5.772,1.19,3.886-.16,8.375-4.071,8.447-10.4.06-5.253-3.936-10.072-10.673-10.093a41.871,41.871,0,0,0-8.366.971v30.53l4.252.042Z" transform="translate(-981 -1667)"/>
</svg>
