<svg xmlns="http://www.w3.org/2000/svg" viewBox="0 0 75.001 49">
  <defs>
    <style>
      .cls-1 {
        fill: #613d30;
      }
    </style>
  </defs>
  <path id="Shape_718" data-name="Shape 718" class="cls-1" d="M1247.239,1704a6.583,6.583,0,1,1,0-13.164h.034a6.686,6.686,0,0,1,3.612,1.052v-.72h3.081v12.467h-3.081v-.687a6.687,6.687,0,0,1-3.612,1.052Zm-3.656-6.583a3.665,3.665,0,0,0,3.656,3.623h.034a3.684,3.684,0,0,0,3.612-2.936v-1.374a3.675,3.675,0,0,0-3.612-2.925h-.034A3.648,3.648,0,0,0,1243.583,1697.417ZM1232.772,1704a6.583,6.583,0,1,1,0-13.164h.033a6.714,6.714,0,0,1,3.612,1.052v-5h3.081v16.744h-3.081v-.687a6.714,6.714,0,0,1-3.612,1.052Zm-3.657-6.583a3.665,3.665,0,0,0,3.657,3.623h.033a3.683,3.683,0,0,0,3.612-2.936v-1.374a3.674,3.674,0,0,0-3.612-2.925h-.033A3.649,3.649,0,0,0,1229.116,1697.417ZM1213.272,1704a6.583,6.583,0,1,1,0-13.164h.033a6.75,6.75,0,0,1,3.623,1.052v-5h3.081v16.744h-3.081v-.687a6.75,6.75,0,0,1-3.623,1.052Zm-3.657-6.583a3.665,3.665,0,0,0,3.657,3.623h.033a3.687,3.687,0,0,0,3.623-2.936v-1.374a3.678,3.678,0,0,0-3.623-2.925h-.033A3.649,3.649,0,0,0,1209.615,1697.417ZM1198.658,1704a6.583,6.583,0,1,1,0-13.164h.034a6.75,6.75,0,0,1,3.623,1.052v-.72h3.081v12.467h-3.081v-.687a6.756,6.756,0,0,1-3.623,1.052Zm-3.645-6.583a3.662,3.662,0,0,0,3.645,3.623h.034a3.687,3.687,0,0,0,3.623-2.936v-1.374a3.678,3.678,0,0,0-3.623-2.925h-.034A3.646,3.646,0,0,0,1195.013,1697.417Zm62.3,5.508a3.689,3.689,0,0,1-1.975-3.424h3.431a1.58,1.58,0,0,0,.633,1.341,3.572,3.572,0,0,0,2.132.487,2.6,2.6,0,0,0,1.693-.465,1.032,1.032,0,0,0,.428-.82c0-.521-.676-.931-2.019-1.219a22.457,22.457,0,0,1-3.792-1.008,3.09,3.09,0,0,1-2.054-2.959,3.828,3.828,0,0,1,1.072-2.759,5.363,5.363,0,0,1,4.051-1.408,8.593,8.593,0,0,1,3.555.621,1.206,1.206,0,0,1,.214.111,3.556,3.556,0,0,1,1.941,3.39h-3.272a2.15,2.15,0,0,0-.474-1.12,2.5,2.5,0,0,0-1.772-.52,2.694,2.694,0,0,0-1.693.4,1.023,1.023,0,0,0-.361.82c0,.488.689.875,2.054,1.175a32.894,32.894,0,0,1,3.363.853c.181.067.339.121.452.177a3.109,3.109,0,0,1,2.077,2.927,3.7,3.7,0,0,1-2.021,3.49c-.169.088-.328.167-.509.244a7.772,7.772,0,0,1-3.023.553A8.437,8.437,0,0,1,1257.316,1702.925Zm-35.772.708v-12.8h3.352v12.8Zm0-13.784v-2.892h3.352v2.892Zm42.927-.543a1.926,1.926,0,0,1-.97-.255,1.706,1.706,0,0,1-.723-.709,1.924,1.924,0,0,1,0-1.929,1.8,1.8,0,0,1,.734-.709,2.186,2.186,0,0,1,.959-.255h.011a2.037,2.037,0,0,1,.96.255,1.737,1.737,0,0,1,.733.709,1.923,1.923,0,0,1,0,1.929,1.71,1.71,0,0,1-.723.709,1.927,1.927,0,0,1-.971.255Zm.012-.322a1.633,1.633,0,0,0,.813-.211,1.5,1.5,0,0,0,.6-.587,1.6,1.6,0,0,0-.609-2.205,1.76,1.76,0,0,0-.8-.211h-.011a1.759,1.759,0,0,0-.8.211,1.577,1.577,0,0,0-.608,2.205,1.505,1.505,0,0,0,.6.587,1.644,1.644,0,0,0,.813.211Zm.5-.531-.193-.332a1.923,1.923,0,0,0-.316-.444.146.146,0,0,0-.045-.033.378.378,0,0,0-.271-.077h-.2v.886h-.339v-2.083h.734c.045,0,.09.011.123.011a1.244,1.244,0,0,1,.407.055.494.494,0,0,1,.271.2.484.484,0,0,1,.1.3.538.538,0,0,1-.17.4.67.67,0,0,1-.44.189.538.538,0,0,1,.181.11,2.841,2.841,0,0,1,.317.41l.247.41Zm-1.028-1.175h.518a.49.49,0,0,0,.305-.089.273.273,0,0,0,.1-.22.267.267,0,0,0-.045-.167.25.25,0,0,0-.147-.111,1.949,1.949,0,0,0-.214-.033h-.519Zm-22.333-.387-8.847-14.483-6.7-10.959,6.7-3.955,4.22-2.493,10.246,16.732,9.266,15.159Zm-20.087,0-8.26-13.5-.362-.588.362-.21,10.574-6.25,8.926,14.583,3.633,5.962Zm-8.26,0h-11.839l-1.67-2.737,10.935-6.449,2.573,4.2,3.047,4.987Z" transform="translate(-1192 -1655)"/>
</svg>
