<svg xmlns="http://www.w3.org/2000/svg" viewBox="0 0 183 36">
  <defs>
    <style>
      .cls-1 {
        fill: #613d30;
      }
    </style>
  </defs>
  <path id="Shape_719" data-name="Shape 719" class="cls-1" d="M1413.293,1686.246l-.275-.522-.388-.5-.5-.41-.275-.228-1.944,2.23.229.068.48.227.434.3.3.3.137.364.046.455-.115.547-.366.592-.71.682-1.007.682-1.212.547-1.326.387-1.3.226-1.076.092-.754-.022-.5-.092-.388-.182-.275-.273-.137-.364.046-.386.183-.41.549-.8,3.317-3.913,2.722-3.232-5.7-.025-.754.774-.251.205-.366.068-.366-.137-.275-.228-.388-.3-.71-.318-.732-.2-.778-.068-1.075.046-1.1.136-1.052.2-1.052.319-1.03.364-.091.046-.938.478-.961.614-.938.66-.87.728-.824.774-.754.865-.687.911-.5.819-.251.3-.3.114h-.3l-.892-.022-.961-.091-1.052-.182-.778-.2-.229-.068-.137-.183-.046-.2.046-.228.159-.159.275-.342,4.346-4.46.367-.274.571-.272.961-.41,1.51-.729,1.464-.819,1.441-.865.275-.2,1.1-.75,1.35-1,1.3-1.069,1.259-1.23,1.006-1.16.709-1,.388-.8.092-.5-.114-.364-.274-.3-.367-.182h-.434l-.641.136-1.006.342-1.326.568-1.509.8-1.533.956-.068.045-2.425,1.957-2.516,2.208-3.912,3.55-3.065,2.776-2.036,1.821-.275.136h-.343l-.434-.159-.571-.342-.55-.3-.388-.067-.389.022-.366.137-.3.251-.32.432-.115.3-.045.3.023.3.114.3.251.386.229.318.069.205-.023.205-.115.136-.343.182-.961.319-1.692.432-1.692.364-1.007.183-.526-.046-.367-.183-.251-.25-.115-.319.045-.386.137-.318.16-.273,5.9-6.508.343-.227.571-.273,1.144-.455,1.6-.728,1.51-.819,1.121-.683.343-.2,1.418-.956,1.35-1.024,1.326-1.115,1.007-.955.778-.91.595-.8.32-.592.068-.41-.091-.365-.321-.318-.663-.2-1.144.068-1.624.386-2.013.751-1.349.636-.687.3-1.853,1.07-1.83,1.182-1.692,1.23-1.487,1.229-1.3,1.229-1.235,1.275-7.618,8.306-.366.3-.434.273-.663.227-.755.2-.617.091-.5-.022-.367-.137-.275-.2-.115-.3-.023-.342.137-.318.184-.273,15.167-17.591h-5.536l-.412.41-.526.523-.32.2-.229.091-.228-.022-.252-.092-.343-.16-.572-.318-.823-.365-1.007-.272-1.281-.137-1.555.068-1.716.272-1.853.5-1.331.478-.778.3-2.447,1.137-2.562,1.388-2.38,1.411-1.99,1.365-1.625,1.275L1344,1680.42l-1.143,1.229-.937,1.207-.71,1.115-.549,1.115-.367.978-.205.956-.092.864.046.8.161.774.275.706.434.661.618.614.754.478.87.341,1.006.228,1.1.046,1.166-.091,1.3-.3,1.35-.455,1.281-.569,1.143-.524.595-.272.137-.046.161.022.137.092.069.16-.023.159v.386l.023.386.068.251.115.2.183.183.229.158.275.137.458.137.595.068h.709l.8-.046,1.121-.205.161-.022,1.487-.386,1.442-.455,1.121-.364.274-.046.275.092.205.2.092.273.091.3.115.227.184.183.205.137.205.092.549.114.961.09,1.35-.022,1.326-.114,1.327-.182,1.326-.272,1.6-.455,1.442-.432,1.075-.228h.183l.16.137.022.182-.114.16-3.339,3.118-4.3,3.937L1365,1699.9l-1.029.614-1.029.5-1.052.386-.983.273-.938.113-.846.046-.778-.092-.709-.182-.48-.227-.183-.068-.618-.41-.526-.5-.458-.568-.252-.272-2.242,1.388.48.343,1.212.75,1.373.728,1.212.478.251.114,1.395.41,1.235.183,1.258.09,1.326-.09,1.442-.251,1.624-.5,1.671-.728,1.464-.8,1.213-.819,1.1-.911.526-.455,8.029-8.42.344-.273.343-.183.411-.068.595.023h.092l.777.068,1.121.092,1.281-.022,1.075-.046.617.022.343.137.275.25.3.41.366.432.5.432.686.364.846.228.984.114.961-.046.983-.183.87-.25.068-.023.824-.273.549-.159.321-.046.229.159.274.274.389.318.641.273,1.007.159,1.692.046,2.264.046,2.174-.046,1.647-.091,1.3-.227,1.213-.318,1.144-.41,1.006-.5.847-.5.686-.569.595-.591.458-.637.343-.706.228-.661.092-.614-.022-.592-.136-.592Zm-23.951-5.143.252-.364.343-.41.824-.887,1.761-1.866.571-.592.367-.386.183-.182,1.235-1.207.961-.842.8-.568.526-.3.32-.09h.138l.046.068.022.114-.068.25-.275.547-.594.955-.892,1.16-.984,1.093-1.052,1.024-.366.319-.755.637-1.188.863-1.144.774-.549.319-.3.114h-.16l-.092-.068-.023-.16.091-.319Zm-11.964-.865.367-.478.686-.774.846-.933.846-.933.733-.75.618-.592.434-.41,1.1-.933,1.006-.728.8-.455.457-.205.184-.068.115.046.091.137.022.227-.16.387-.412.729-.687.978-.916,1.137-1.121,1.138-.915.751-.389.3-1.4.955-1.189.683-.709.318-.275.091-.16-.022-.068-.09-.022-.228.115-.274Zm-19.4,4.188-.824.91-.824.751-.824.66-.87.547-.892.455-.823.3-.778.16-.8.046-.778-.068-.687-.205-.595-.318-.5-.455-.389-.637-.251-.773-.068-.956.206-1.093.458-1.206.754-1.252,1.052-1.319,1.4-1.365,1.716-1.411,1.784-1.319,1.692-1.093h.023l1.555-.865,1.464-.682,1.3-.478,1.1-.3.915-.136.755.046.641.136.5.228.388.3.252.364.137.41.046.41-.068.455-.183.454-.205.387-.5.568-1.4,1.616-2.745,3.118-1.854,2.14Zm42.983.636-.114.365-.229.342-.366.409-.229.273-1.326,1.57-.687.75-1.121,1.139-.915.637-.892.386-.778.182-.595.022-.251-.022-.251-.046-.388-.2-.344-.318-.229-.456-.068-.591.206-.842.5-.911.571-.82.046-.046.709-.751.778-.682.846-.592,1.052-.614.915-.41.8-.25.641-.068.571.046.48.182.367.274.228.341.068.342v.363Zm118.586-1.206-.275.5-.367.41-.411.342-.459.25-.5.2-.527.114-.868.16-.55.021-.275-.09-.136-.183-.092-.249-.069-.387-.092-.386-.16-.386-.184-.342-.365-.409-.435-.342-.479-.25-.55-.137-.8-.114h-.823l-.824.091-.778.183-1.165.409-1.19.569-1.121.705-.938.774-.8.8-.709.911-.594.978-.413.842-.25.523-.115.16-.138.159-.184.114-.184.091-.663.273-.892.341-1.121.365-1.052.227-.982.091-.321-.022-.549-.022-.711-.114-.594-.2-.479-.319-.389-.364-.229-.364-.046-.159v-.183l.068-.159.161-.182.321-.16.938-.432,1.211-.5.3-.136,1.006-.456.617-.364.617-.365.573-.41.571-.431.525-.547.435-.592.138-.25.114-.25.046-.25.021-.273-.044-.273-.115-.228-.184-.2-.229-.159-.479-.182-.5-.114-.5-.046-.5.023-1.076.136-1.03.228-.046.022-1.052.342-.982.432-1.213.614-1.053.638-.961.8-.87.842-.64.865-.479.842-.321.819-.184.592-.184.364-.3.273-.525.251-1.211.41-1.03.227-.663.046-.459-.046-.3-.091-.2-.25-.115-.456.068-.455.617-.956,1.854-2.5,1.371-1.843.389-.66.115-.387-.022-.319-.138-.364-.252-.25-.411-.137-1.373.2-3.614.774-2.447.478h-.571l-.16-.114-.092-.2-.046-.364-.138-.432-.433-.25-.663-.091-.892.137-2.335.614-3.019.775-1.076.182-.184-.022-.092-.045-.067-.068-.022-.114v-.274l.022-.387-.068-.227-.114-.2-.184-.16-.229-.09-.365-.046-.642.046-1.028.25-4.211,1.183-2.95.819-.367.091-.387-.046-.344-.159-.275-.25-.342-.455-.389-.478-.571-.41-.778-.342-.916-.2-.961-.068h-.068l-1.053.068-1.1.228-1.121.364-.892.432-.87.478-.824.568-.754.637-.711.706-.594.773-.479.842-.344.865-.184.683-.068.342-.067.2-.16.228-.321.25-.64.3-.892.3-.55.114-.457.114-.892.136-.594-.022-.207-.046-.229-.114-.182-.182-.092-.228-.046-.272.022-.228.115-.386.227-.522.663-1.229.389-.751.321-.774.273-.75.206-.819.16-.455.206-.25.113-.091.206-.091.55-.159.916-.318.892-.41.846-.5.8-.568.709-.683.663-.729.64-.933.527-1.024.3-.956.184-.932.068-.889-.092-.933-.184-1-.319-.956-.389-.864-.25-.546-.022-.319.182-.318.3-.25.525-.3.435-.2.5-.273-.3-.546-.344.091-.732.228-.754.318-.6.228-.5.045-.571-.16-.846-.432-1.19-.523-1.395-.478-.756-.182-.778-.183-1.555-.227-1.578-.092-.457.046-1.282.068-.87.136-1.167.183-2.012.432-1.785.524-1.624.614-1.487.729-1.418.819-1.281.864-1.144.911-1.029.979-.892.978-.824,1.093-.687,1.115-.481,1.092-.32,1.025-.183.933-.045.865.068.8.229.774.412.774.526.637.687.568.8.455.892.319.824.182.846.068.824-.046.824-.159.778-.251,1.121-.5,1.006-.592.916-.751.824-.842.686-.932.479-.729.344-.75.252-.819.158-.842.023-.774-.069-.683-.158-.66-.229-.661-.3-.614-.387-.569-4.278,3.937.114.318.228.683.138.637.022.637-.091.66-.183.615-.3.568-.412.591-.526.456-.617.364-.526.228-.55.16-.571.046-.571-.068-.55-.137-.526-.25-.55-.455-.458-.546-.32-.614-.206-.683-.092-.683.046-.682.16-.661.343-.911.412-.864.686-1,.778-.933.87-.865.961-.751,1.259-.819,1.3-.706,1.372-.592,1.4-.5,1.44-.364,1.488-.228,1.67-.159h.64l.87-.022,1.282.114h.114l1.257.228,1.19.318,1.028.41.778.386h.048l.5.318.229.251.022.25-.092.228-.114.182-.6.523-.273.25-3.043,2.708-.3.183-.321.068h-.479l-.754-.068-.848.022-.5.068-.229.022-.617.205-.5.273-.435.478-.321.569-.136.66.046.66.159.638.206.546.138.364-.022.25-.229.387-.732.75-1.257,1.206-1.327,1.23-1.1.91-1.006.751-1.052.636-1.006.478-.915.318-.778.183-.8.067h-.824l-.777-.113-.8-.16-.938-.318-.87-.413-.709-.41-4.232,3.8.389.2.983.5,1.189.478,1.326.386,1.235.205,1.212.068h1.1l1.121-.137,1.075-.3,1.029-.41.983-.547.916-.637,1.579-1.275,2.013-1.979,2.631-2.754,1.487-1.547.275-.2.227-.091h.367l.479.136.734.228.663.182.206.046.158.022.229.137.138.2.022.2-.022.2-.184.386-.342.683-.046.091-.754,1.16-1.3,1.615-.046.046-.961,1.184-.5.75-.321.568-.068.251-.046.25-.023.386.115.342.252.318.342.183.5.159.525.092.184.022.344.022.525-.046.846-.091.435-.068.411-.068.824-.182.824-.228,1.9-.66.411-.16,1.373-.523.846-.273.184-.022.138.046.113.068.138.136.367.432.525.5.711.455.844.342,1.007.205,1.076.022,1.167-.2,1.143-.343,1.076-.478.984-.591.092-.068,1.076-.819.824-.819.686-.887.594-.911.459-.865.319-.524.161-.182.229-.137.709-.228.846-.182.594-.068.367.091.229.137.16.183.046.251-.024.272-.136.205-2.289,3.072-2.31,3.026,5.216.046,5.49-7.1.25-.272.321-.227.365-.137,1.052-.182.846-.022.367.022.252.114.158.205.068.25-.046.227-.136.228-.892,1.206-1.808,2.3-2.7,3.368h5.512l5.651-7.351.16-.2.273-.159.573-.137.984-.136.754-.022h.3l.252.136.206.2.092.273-.022.251-.138.272-.732,1.046-1.488,1.958-1.143,1.616-.206.363-.138.319-.023.227.068.2.115.183.206.228.754.342,1.167.159,1.28-.067,1.692-.3,2.722-.751,2.241-.66.527-.16.365.022.275.16.344.318.525.386.754.432,1.007.318,1.213.16h1.371l1.487-.183,1.1-.25.435-.114,1.487-.456,1.325-.5,1.03-.455.525-.182.16-.046h.184l.16.068.138.114.273.386.367.478.525.477.734.433.916.3,1.05.09,1.052-.067,1.121-.228,1.211-.432,1.167-.547.709-.432.3-.182.87-.683.754-.774.686-.887.573-.888.319-.568.16-.205.229-.182.229-.114.273-.068.709-.114,1.1-.159,1.236-.228,1.1-.3.87-.342.709-.41.527-.455.433-.523.344-.592.207-.66.114-.319-3.45,1.124Zm-25.462,3.846.022-.159.068-.159.114-.228.3-.432.435-.592.525-.546.573-.569.571-.455.068-.046.663-.432.594-.342.344-.158.321-.091.3-.023.206.092.114.182v.228l-.046.2-.16.318-.411.568-.55.707-.411.386-.413.386-.594.431h-.022l-.617.411-.642.364-.571.227-.275.091-.227.022-.138-.046-.092-.09-.046-.114v-.136Zm-52.934-9.513.229-.342.16-.183.686-.728,1.257-1.206.96-.911.367-.2.275-.068.227.16.252.409.206.547.115.592.046.705-.046.75-.161.729-.252.682-.365.705-.481.614-.5.524-.435.364-.206.114-.136.068-.321-.022-.367-.319-.387-.568-.367-.637-.365-.523-.275-.387-.161-.3-.046-.272.093-.295Zm-3.225,1.434-.092.16-.229.25-.2.227-.389.433-.046.022-.092.046-.138.068-.3.022-.229-.114-.138-.25-.068-.341.092-.319.206-.3.321-.228.342-.114h.023l.389-.046.273.046.184.114.092.16v.16Zm2.195,2.321-.046.182-.136.182-.275.137-.413.046-.136-.024-.344-.022-.389-.183-.25-.25-.046-.25.115-.2.092-.114.113-.114.6-.683.115-.046.227-.022.229.068.206.228.184.3.112.3.046.25v.228Zm17.8,3.186-.068.182-.184.273-.387.364-.435.478-.321.546-.182.456-.023.342.115.3.09.16.092.068.068.091.092.16.046.159-.046.182-.184.228-.365.342-.275.205-.275.182-.5.25-.092.046-.321.091-.319.046-.321.022-.5-.046-.481-.2-.319-.3-.229-.364-.138-.432-.046-.432.046-.456.092-.478.16-.455.207-.41.319-.592.413-.5.457-.478.527-.432.549-.342.022-.022.594-.228.573-.091.5.022.413.136.319.25.229.25.092.228v.2Zm56.181.16-.092.182-.16.183-.252.2-.319.251-.367.272-.342.319-.321.318-.3.387-.227.41-.114.272-.023.137.069.114.092.114.092.067.112.068.068.091.092.159v.228l-.206.3-.411.342-.229.114-.365.183-.527.182-.365.068-.321-.022-.3-.092-.273-.113-.252-.183-.206-.227-.16-.343-.092-.523v-.547l.115-.523.184-.5.413-.774.5-.682.55-.569.617-.478.479-.274.115-.068.571-.2.573-.09.5.045.435.136.319.228.206.273.092.228.046.182-.024.16Z" transform="translate(-1340 -1668)"/>
</svg>
