<svg xmlns="http://www.w3.org/2000/svg" viewBox="0 0 19.633 21.6">
  <defs>
    <style>
      .cls-1, .cls-3 {
        fill: #f68e56;
      }

      .cls-2, .cls-3 {
        stroke: none;
      }
    </style>
  </defs>
  <g id="Shape_3_copy_4" data-name="Shape 3 copy 4" class="cls-1" transform="translate(-1039.684 -1181.7)">
    <path class="cls-2" d="M 1059.158813476562 1203.1494140625 L 1059.000366210938 1203.1494140625 L 1039.99951171875 1203.1494140625 L 1039.841674804688 1203.1494140625 L 1039.849731445312 1202.991821289062 L 1040.911743164062 1181.9921875 L 1040.9189453125 1181.849731445312 L 1041.0615234375 1181.849731445312 L 1057.8447265625 1181.849731445312 L 1057.986694335938 1181.849731445312 L 1057.994506835938 1181.991455078125 L 1059.150146484375 1202.9912109375 L 1059.158813476562 1203.1494140625 Z M 1040.840087890625 1201.965576171875 L 1058.0107421875 1201.965576171875 L 1056.926391601562 1183.121704101562 L 1041.9794921875 1183.121704101562 L 1040.840087890625 1201.965576171875 Z M 1049.453979492188 1190.869873046875 C 1048.255615234375 1190.869873046875 1047.112060546875 1190.310668945312 1046.234008789062 1189.295166015625 C 1045.36865234375 1188.29443359375 1044.837890625 1186.94091796875 1044.739624023438 1185.48388671875 L 1044.728759765625 1185.32373046875 L 1044.889282226562 1185.32373046875 L 1045.669555664062 1185.32373046875 L 1045.807861328125 1185.32373046875 L 1045.819091796875 1185.461547851562 C 1045.911376953125 1186.59423828125 1046.334350585938 1187.641479492188 1047.01025390625 1188.410034179688 C 1047.683227539062 1189.175415039062 1048.551025390625 1189.596923828125 1049.453979492188 1189.596923828125 C 1050.356689453125 1189.596923828125 1051.224487304688 1189.175415039062 1051.897338867188 1188.410034179688 C 1052.573364257812 1187.641235351562 1052.996215820312 1186.594116210938 1053.088134765625 1185.461669921875 L 1053.099365234375 1185.32373046875 L 1053.237670898438 1185.32373046875 L 1054.017944335938 1185.32373046875 L 1054.178344726562 1185.32373046875 L 1054.167602539062 1185.483764648438 C 1054.069702148438 1186.940673828125 1053.539184570312 1188.294189453125 1052.673583984375 1189.295166015625 C 1051.795532226562 1190.310668945312 1050.652099609375 1190.869873046875 1049.453979492188 1190.869873046875 Z"/>
    <path class="cls-3" d="M 1059.000366210938 1202.999389648438 L 1057.8447265625 1181.999755859375 L 1041.0615234375 1181.999755859375 L 1039.99951171875 1202.999389648438 L 1059.000366210938 1202.999389648438 M 1041.838256835938 1182.9716796875 L 1057.067993164062 1182.9716796875 L 1058.169677734375 1202.115600585938 L 1040.680786132812 1202.115600585938 L 1041.838256835938 1182.9716796875 M 1049.453979492188 1190.719848632812 C 1051.848876953125 1190.719848632812 1053.82080078125 1188.40771484375 1054.017944335938 1185.473754882812 L 1053.237670898438 1185.473754882812 C 1053.043212890625 1187.870483398438 1051.419677734375 1189.746948242188 1049.453979492188 1189.746948242188 C 1047.487548828125 1189.746948242188 1045.864868164062 1187.870483398438 1045.669555664062 1185.473754882812 L 1044.889282226562 1185.473754882812 C 1045.087280273438 1188.40771484375 1047.058227539062 1190.719848632812 1049.453979492188 1190.719848632812 M 1059.3173828125 1203.299438476562 L 1059.000366210938 1203.299438476562 L 1039.99951171875 1203.299438476562 L 1039.683959960938 1203.299438476562 L 1039.699829101562 1202.984252929688 L 1040.761840820312 1181.984619140625 L 1040.7763671875 1181.69970703125 L 1041.0615234375 1181.69970703125 L 1057.8447265625 1181.69970703125 L 1058.128662109375 1181.69970703125 L 1058.144287109375 1181.983276367188 L 1059.299926757812 1202.98291015625 L 1059.3173828125 1203.299438476562 Z M 1040.99951171875 1201.815551757812 L 1057.851928710938 1201.815551757812 L 1056.784790039062 1183.271728515625 L 1042.120727539062 1183.271728515625 L 1040.99951171875 1201.815551757812 Z M 1049.453979492188 1191.019897460938 C 1048.21142578125 1191.019897460938 1047.027587890625 1190.442138671875 1046.12060546875 1189.393310546875 C 1045.234008789062 1188.368041992188 1044.6904296875 1186.983276367188 1044.589965820312 1185.493896484375 L 1044.568359375 1185.173706054688 L 1044.889282226562 1185.173706054688 L 1045.669555664062 1185.173706054688 L 1045.946166992188 1185.173706054688 L 1045.968627929688 1185.449340820312 C 1046.058227539062 1186.550170898438 1046.46826171875 1187.56640625 1047.122924804688 1188.31103515625 C 1047.766967773438 1189.043579101562 1048.594848632812 1189.446899414062 1049.453979492188 1189.446899414062 C 1050.312866210938 1189.446899414062 1051.140625 1189.043579101562 1051.784790039062 1188.31103515625 C 1052.439575195312 1187.566284179688 1052.849365234375 1186.550048828125 1052.938598632812 1185.449462890625 L 1052.961059570312 1185.173706054688 L 1053.237670898438 1185.173706054688 L 1054.017944335938 1185.173706054688 L 1054.338745117188 1185.173706054688 L 1054.317260742188 1185.493896484375 C 1054.217163085938 1186.983032226562 1053.673706054688 1188.367797851562 1052.786987304688 1189.393310546875 C 1051.880004882812 1190.442138671875 1050.6962890625 1191.019897460938 1049.453979492188 1191.019897460938 Z"/>
  </g>
</svg>
