<svg xmlns="http://www.w3.org/2000/svg" viewBox="0 0 19.632 21.6">
  <defs>
    <style>
      .cls-1 {
        fill: #f0f0f0;
      }

      .cls-2, .cls-3 {
        stroke: none;
      }

      .cls-3 {
        fill: #fff;
      }
    </style>
  </defs>
  <g id="Shape_3" data-name="Shape 3" class="cls-1" transform="translate(-1422.684 -77.699)">
    <path class="cls-2" d="M 1442.158325195312 99.14910125732422 L 1441.999877929688 99.14910125732422 L 1422.999877929688 99.14910125732422 L 1422.842163085938 99.14910125732422 L 1422.85009765625 98.99153137207031 L 1423.911254882812 77.99182891845703 L 1423.91845703125 77.84940338134766 L 1424.06103515625 77.84940338134766 L 1440.845092773438 77.84940338134766 L 1440.987060546875 77.84940338134766 L 1440.994873046875 77.99116516113281 L 1442.149658203125 98.99085998535156 L 1442.158325195312 99.14910125732422 Z M 1423.840576171875 97.96530151367188 L 1441.01025390625 97.96530151367188 L 1439.925903320312 79.12229919433594 L 1424.979858398438 79.12229919433594 L 1423.840576171875 97.96530151367188 Z M 1432.453491210938 86.86949920654297 C 1431.255493164062 86.86949920654297 1430.112060546875 86.31031036376953 1429.234008789062 85.29492950439453 C 1428.368408203125 84.29413604736328 1427.837890625 82.94084167480469 1427.739990234375 81.48435974121094 L 1427.729248046875 81.32430267333984 L 1427.8896484375 81.32430267333984 L 1428.669921875 81.32430267333984 L 1428.808227539062 81.32430267333984 L 1428.819458007812 81.46216583251953 C 1428.911376953125 82.59449005126953 1429.334106445312 83.64149475097656 1430.009887695312 84.41030120849609 C 1430.682861328125 85.17588043212891 1431.550659179688 85.59750366210938 1432.453491210938 85.59750366210938 C 1433.356323242188 85.59750366210938 1434.224243164062 85.17587280273438 1434.897338867188 84.41029357910156 C 1435.573120117188 83.64153289794922 1435.996215820312 82.59451293945312 1436.088500976562 81.46211242675781 L 1436.099731445312 81.32430267333984 L 1436.238037109375 81.32430267333984 L 1437.018310546875 81.32430267333984 L 1437.178833007812 81.32430267333984 L 1437.16796875 81.48440551757812 C 1437.069702148438 82.94092559814453 1436.538818359375 84.29420471191406 1435.673217773438 85.29494476318359 C 1434.794921875 86.31031036376953 1433.651489257812 86.86949920654297 1432.453491210938 86.86949920654297 Z"/>
    <path class="cls-3" d="M 1441.999877929688 98.99909973144531 L 1440.845092773438 77.99940490722656 L 1424.06103515625 77.99940490722656 L 1422.999877929688 98.99909973144531 L 1441.999877929688 98.99909973144531 M 1424.838623046875 78.97230529785156 L 1440.067504882812 78.97230529785156 L 1441.169189453125 98.11530303955078 L 1423.681274414062 98.11530303955078 L 1424.838623046875 78.97230529785156 M 1432.453491210938 86.71950531005859 C 1434.848388671875 86.71950531005859 1436.8203125 84.40740203857422 1437.018310546875 81.47430419921875 L 1436.238037109375 81.47430419921875 C 1436.042724609375 83.87010192871094 1434.420043945312 85.74750518798828 1432.453491210938 85.74750518798828 C 1430.487060546875 85.74750518798828 1428.864379882812 83.87010192871094 1428.669921875 81.47430419921875 L 1427.8896484375 81.47430419921875 C 1428.086791992188 84.40740203857422 1430.05859375 86.71950531005859 1432.453491210938 86.71950531005859 M 1442.316772460938 99.29910278320312 L 1441.999877929688 99.29910278320312 L 1422.999877929688 99.29910278320312 L 1422.684326171875 99.29910278320312 L 1422.700317382812 98.98396301269531 L 1423.761474609375 77.98426055908203 L 1423.77587890625 77.69940185546875 L 1424.06103515625 77.69940185546875 L 1440.845092773438 77.69940185546875 L 1441.129028320312 77.69940185546875 L 1441.144653320312 77.98293304443359 L 1442.299438476562 98.98263549804688 L 1442.316772460938 99.29910278320312 Z M 1424 97.81529998779297 L 1440.851440429688 97.81529998779297 L 1439.784301757812 79.27230072021484 L 1425.12109375 79.27230072021484 L 1424 97.81529998779297 Z M 1432.453491210938 87.01950073242188 C 1431.211181640625 87.01950073242188 1430.027587890625 86.44187927246094 1429.120483398438 85.39305114746094 C 1428.233764648438 84.36775970458984 1427.6904296875 82.98320007324219 1427.59033203125 81.49442291259766 L 1427.56884765625 81.17430114746094 L 1427.8896484375 81.17430114746094 L 1428.669921875 81.17430114746094 L 1428.946533203125 81.17430114746094 L 1428.968994140625 81.45003509521484 C 1429.058227539062 82.55039978027344 1429.467895507812 83.56654357910156 1430.12255859375 84.31127166748047 C 1430.7666015625 85.04398345947266 1431.594360351562 85.44750213623047 1432.453491210938 85.44750213623047 C 1433.312622070312 85.44750213623047 1434.140502929688 85.04397583007812 1434.78466796875 84.31124877929688 C 1435.439331054688 83.56655120849609 1435.849365234375 82.55038452148438 1435.939086914062 81.44992065429688 L 1435.961547851562 81.17430114746094 L 1436.238037109375 81.17430114746094 L 1437.018310546875 81.17430114746094 L 1437.339233398438 81.17430114746094 L 1437.317626953125 81.49451446533203 C 1437.217163085938 82.98331451416016 1436.673461914062 84.36785125732422 1435.78662109375 85.39307403564453 C 1434.87939453125 86.44189453125 1433.695678710938 87.01950073242188 1432.453491210938 87.01950073242188 Z"/>
  </g>
</svg>
