<svg xmlns="http://www.w3.org/2000/svg" viewBox="0 0 16 18.001">
  <defs>
    <style>
      .cls-1 {
        fill: #3a3a3a;
      }
    </style>
  </defs>
  <path id="Shape_639" data-name="Shape 639" class="cls-1" d="M1303.392,816.505a.723.723,0,0,1-.312-.619v-7.652a.793.793,0,0,1,.277-.619,29.871,29.871,0,0,1,2.712-1.894,7.693,7.693,0,0,0,3.268-3.207c.347-1.021.59-2.515,2.155-2.515a1.72,1.72,0,0,1,1.6,1.166c.486,1.2.243,3.28-1.112,5.32.73.182,1.669.4,2.19.583a2.575,2.575,0,0,1,1.807,2.077,2.958,2.958,0,0,1-1.286,2.732c-.834,2.441-1.981,5.32-2.85,5.83a3.129,3.129,0,0,1-1.6.292C1308.327,818,1304.47,817.307,1303.392,816.505Zm7.509-13.955c-.035.145-.07.328-.1.473-.418,1.311-2.051,2.914-4,4.081a19.678,19.678,0,0,0-2.19,1.531v6.777a19.218,19.218,0,0,0,5.631,1.021,1.961,1.961,0,0,0,.834-.11,27.143,27.143,0,0,0,2.259-5.21,1.031,1.031,0,0,1,.278-.4c.591-.437.939-.911.869-1.347a1.031,1.031,0,0,0-.765-.8c-.939-.291-3.2-.837-3.233-.837a.809.809,0,0,1-.382-1.312c1.669-1.894,1.947-3.862,1.634-4.628-.1-.219-.174-.219-.243-.219C1311.282,801.566,1311.213,801.566,1310.9,802.551ZM1300,815.387V808.97a1,1,0,0,1,1-1.045,1.021,1.021,0,0,1,1.025,1.045v6.418a1.021,1.021,0,0,1-1.025,1.046A1,1,0,0,1,1300,815.387Z" transform="translate(-1300 -799.999)"/>
</svg>
