<svg xmlns="http://www.w3.org/2000/svg" viewBox="0 0 21.001 21.001">
  <defs>
    <style>
      .cls-1 {
        fill: #3a3a3a;
      }
    </style>
  </defs>
  <path id="Shape_633" data-name="Shape 633" class="cls-1" d="M448.654,820.6a29.785,29.785,0,0,1-10.247-10.275,3.321,3.321,0,0,1,.555-3.929,3.286,3.286,0,0,1,2-.95,1.052,1.052,0,0,1,.117-.006,1.184,1.184,0,0,1,.843.35l2.3,2.306a1.2,1.2,0,0,1,.343.966,3.3,3.3,0,0,1-.713,1.745.4.4,0,0,0,0,.495,25.222,25.222,0,0,0,3.823,3.837.392.392,0,0,0,.491,0,3.272,3.272,0,0,1,1.741-.717,1.18,1.18,0,0,1,.963.345l2.3,2.306a1.2,1.2,0,0,1,.344.963,3.3,3.3,0,0,1-4.856,2.569Zm5.607-4.629-.223-.223A7.7,7.7,0,1,0,443.3,804.98l-.289-.29a2.727,2.727,0,0,0-1.189-.7,9.475,9.475,0,1,1,13.156,13.268A2.743,2.743,0,0,0,454.261,815.97Zm-5.474-4.554-1.566-1.6a1.022,1.022,0,0,1,0-1.424.969.969,0,0,1,1.391,0l.869.89,3.479-3.56a.969.969,0,0,1,1.391,0,1.024,1.024,0,0,1,0,1.423l-4.175,4.271a.967.967,0,0,1-1.391,0Z" transform="translate(-437.999 -799.999)"/>
</svg>
