<svg xmlns="http://www.w3.org/2000/svg" viewBox="0 0 21 14.972">
  <defs>
    <style>
      .cls-1 {
        fill: #3a3a3a;
      }
    </style>
  </defs>
  <path id="Shape_634" data-name="Shape 634" class="cls-1" d="M1030.466,806.609v8.853l6.889-1.338v-4.314a.3.3,0,0,1,.329-.3l.847.134a.3.3,0,0,1,.262.3v5.011a.3.3,0,0,1-.233.3l-7.542,1.659a2.6,2.6,0,0,1-1.106,0l-7.461-1.605a.3.3,0,0,1-.234-.288l-.129-5.089a.3.3,0,0,1,.269-.309l6.338-.57a.3.3,0,0,0,.247-.186l.955-2.372a.3.3,0,0,1,.569.115Zm-8.449-2.9-1.989,4.349a.3.3,0,0,0,.3.429l7.469-.772a.3.3,0,0,0,.24-.178l2.4-5.539-8.206,1.542a.3.3,0,0,0-.214.169Zm8.421-1.711,2.543,5.712a.3.3,0,0,0,.245.176l7.455.613a.3.3,0,0,0,.292-.427l-1.944-4.36a.3.3,0,0,0-.217-.172Zm0,0" transform="translate(-1020 -802)"/>
</svg>
