<svg xmlns="http://www.w3.org/2000/svg" viewBox="0 0 12.591 17.609"><defs><style>.a,.c{fill:#898989;}.b,.c{stroke:none;}</style></defs><g transform="translate(-1034.689 -11.701)"><g class="a"><path class="b" d="M 1044.289672851562 29.16009902954102 C 1044.20263671875 29.16009902954102 1044.114868164062 29.14847183227539 1044.022094726562 29.12459945678711 L 1044.021484375 29.12459945678711 L 1044.001708984375 29.11919975280762 C 1043.909423828125 29.09372901916504 1043.827270507812 29.06078910827637 1043.761352539062 29.0343189239502 C 1043.702514648438 29.01072883605957 1043.654174804688 28.99177932739258 1043.612548828125 28.9803295135498 L 1043.605590820312 28.97848892211914 L 1043.59521484375 28.97573852539062 C 1043.5810546875 28.97198867797852 1043.56689453125 28.96819877624512 1043.552734375 28.9640998840332 C 1042.818603515625 28.76251983642578 1041.608154296875 28.18406867980957 1040.021606445312 26.57614898681641 C 1038.837036132812 25.37521934509277 1037.735961914062 23.8807487487793 1036.921142578125 22.36802864074707 C 1035.446899414062 19.63050842285156 1034.731689453125 16.54364967346191 1034.8525390625 13.44115924835205 C 1034.87939453125 12.75955963134766 1035.396118164062 12.19741916656494 1036.054443359375 12.13349914550781 L 1038.900268554688 11.85709953308105 C 1038.942016601562 11.85305976867676 1038.984252929688 11.85100936889648 1039.026000976562 11.85100936889648 C 1039.141967773438 11.85100936889648 1039.257934570312 11.86669921875 1039.370727539062 11.89763927459717 C 1039.781860351562 12.01054954528809 1040.120361328125 12.32149887084961 1040.2763671875 12.7294397354126 L 1041.35986328125 15.56922912597656 C 1041.586791992188 16.16401863098145 1041.391357421875 16.83343887329102 1040.884643554688 17.19715881347656 L 1039.5 18.19124984741211 C 1039.363159179688 18.28931999206543 1039.30859375 18.47353935241699 1039.367309570312 18.63928985595703 C 1039.595336914062 19.28053855895996 1039.8740234375 19.90884971618652 1040.195434570312 20.50653839111328 C 1040.568969726562 21.19952964782715 1041.002319335938 21.85873985290527 1041.483276367188 22.46574974060059 C 1041.533203125 22.52882957458496 1041.599609375 22.57320976257324 1041.67529296875 22.59412956237793 C 1041.705078125 22.60231971740723 1041.736206054688 22.60651969909668 1041.767456054688 22.60651969909668 C 1041.81982421875 22.60651016235352 1041.87255859375 22.59440994262695 1041.919799804688 22.57150840759277 L 1043.367797851562 21.86662864685059 C 1043.54443359375 21.78082847595215 1043.741333007812 21.73549842834473 1043.937377929688 21.73549842834473 C 1044.053955078125 21.73549842834473 1044.170166015625 21.75115966796875 1044.282592773438 21.78204917907715 C 1044.561645507812 21.85884857177734 1044.804809570312 22.0223388671875 1044.98583984375 22.25485992431641 L 1046.837158203125 24.63643836975098 C 1047.2080078125 25.11355972290039 1047.229614257812 25.79365921020508 1046.8896484375 26.29032897949219 L 1045.31787109375 28.58603858947754 C 1045.112670898438 28.88518905639648 1044.79345703125 29.08983993530273 1044.442016601562 29.14760971069336 C 1044.392211914062 29.1558895111084 1044.3408203125 29.16009902954102 1044.289672851562 29.16009902954102 Z M 1044.255859375 28.16214942932129 C 1044.278564453125 28.16807174682617 1044.287353515625 28.16837882995605 1044.288940429688 28.16837882995605 C 1044.381103515625 28.15310859680176 1044.466552734375 28.09800910949707 1044.521728515625 28.01741981506348 L 1046.093505859375 25.72165870666504 C 1046.189208984375 25.58169937133789 1046.18212890625 25.3887996673584 1046.076293945312 25.25265884399414 L 1044.22509765625 22.87135887145996 C 1044.174438476562 22.80641937255859 1044.107177734375 22.76093864440918 1044.030517578125 22.739990234375 C 1044 22.7315788269043 1043.96875 22.72735023498535 1043.9375 22.72735023498535 C 1043.88525390625 22.72735023498535 1043.832885742188 22.73939895629883 1043.7861328125 22.76217842102051 L 1042.337768554688 23.46706962585449 C 1042.161376953125 23.55294990539551 1041.964477539062 23.59833908081055 1041.768310546875 23.59833908081055 C 1041.651611328125 23.59833908081055 1041.535400390625 23.58261871337891 1041.422729492188 23.5516185760498 C 1041.148559570312 23.47651863098145 1040.908203125 23.31675910949707 1040.727905273438 23.08964920043945 C 1040.210327148438 22.43603897094727 1039.744873046875 21.72768020629883 1039.344360351562 20.98412895202637 C 1038.9990234375 20.34272956848145 1038.699462890625 19.66741943359375 1038.4541015625 18.9769287109375 C 1038.246215820312 18.39148902893066 1038.446411132812 17.73470878601074 1038.94091796875 17.37973976135254 L 1040.325561523438 16.38583946228027 C 1040.465942382812 16.28518867492676 1040.51904296875 16.0972900390625 1040.454711914062 15.92888927459717 L 1039.371215820312 13.08977890014648 C 1039.3271484375 12.9743595123291 1039.232666015625 12.88673973083496 1039.11865234375 12.85545921325684 C 1039.088623046875 12.84713935852051 1039.057983398438 12.84296894073486 1039.027221679688 12.84296894073486 C 1039.015869140625 12.84296894073486 1039.00439453125 12.84353923797607 1038.992919921875 12.84466934204102 L 1036.146850585938 13.12069892883301 C 1035.966918945312 13.13809967041016 1035.830810546875 13.28968906402588 1035.8232421875 13.48115921020508 C 1035.709350585938 16.40313911437988 1036.383422851562 19.31099891662598 1037.7724609375 21.89027976989746 C 1039.37890625 24.8735294342041 1041.973022460938 27.50317001342773 1043.806762695312 28.00705909729004 L 1043.846557617188 28.01781845092773 L 1043.86181640625 28.02164840698242 C 1043.958129882812 28.04806900024414 1044.0400390625 28.08075904846191 1044.1123046875 28.10958862304688 C 1044.162109375 28.12952995300293 1044.215209960938 28.15081024169922 1044.254638671875 28.16180992126465 L 1044.255859375 28.16214942932129 Z"/><path class="c" d="M 1044.289672851562 29.01010322570801 C 1044.332885742188 29.01010322570801 1044.37548828125 29.00660514831543 1044.417724609375 28.99959945678711 C 1044.729125976562 28.94839859008789 1045.011962890625 28.76679992675781 1045.194091796875 28.50129890441895 L 1046.765869140625 26.20559883117676 C 1047.069458007812 25.76210021972656 1047.050048828125 25.15469932556152 1046.71875 24.7284984588623 L 1044.867431640625 22.34700012207031 C 1044.70654296875 22.14029884338379 1044.49072265625 21.99489974975586 1044.242919921875 21.92669868469238 C 1044.142578125 21.89916038513184 1044.039794921875 21.88549995422363 1043.937377929688 21.88549995422363 C 1043.76416015625 21.88549995422363 1043.591918945312 21.92452621459961 1043.433471679688 22.00149917602539 L 1041.985229492188 22.70649909973145 C 1041.916870117188 22.73962593078613 1041.842407226562 22.75651359558105 1041.767456054688 22.75651550292969 C 1041.72314453125 22.75651550292969 1041.6787109375 22.7506217956543 1041.63525390625 22.73869895935059 C 1041.528930664062 22.70929908752441 1041.435546875 22.64709854125977 1041.36572265625 22.55889892578125 C 1040.87890625 21.94449996948242 1040.44091796875 21.27799987792969 1040.063354492188 20.57759857177734 C 1039.738525390625 19.97369956970215 1039.456665039062 19.33839988708496 1039.225830078125 18.68929862976074 C 1039.145141601562 18.46109962463379 1039.221557617188 18.206298828125 1039.412475585938 18.06939888000488 L 1040.797119140625 17.0753002166748 C 1041.248657226562 16.75119972229004 1041.422241210938 16.15359878540039 1041.2197265625 15.62269973754883 L 1040.13623046875 12.78299903869629 C 1039.997314453125 12.41959953308105 1039.6962890625 12.14259910583496 1039.3310546875 12.04229927062988 C 1039.231079101562 12.01486587524414 1039.128784179688 12.00100994110107 1039.026000976562 12.00100994110107 C 1038.989013671875 12.00100994110107 1038.951904296875 12.0028018951416 1038.914794921875 12.00639915466309 L 1036.068969726562 12.28279972076416 C 1035.484985351562 12.33949947357178 1035.0263671875 12.83989906311035 1035.00244140625 13.44699954986572 C 1034.882568359375 16.5226993560791 1035.591674804688 19.58289909362793 1037.05322265625 22.29689979553223 C 1037.861450195312 23.79749870300293 1038.953491210938 25.27969932556152 1040.12841796875 26.47079849243164 C 1041.69140625 28.05489921569824 1042.875854492188 28.62269973754883 1043.594360351562 28.81999969482422 C 1043.610961914062 28.82479858398438 1043.627563476562 28.82909965515137 1043.64404296875 28.83349990844727 L 1043.65234375 28.8356990814209 C 1043.703247070312 28.84969902038574 1043.758544921875 28.8715991973877 1043.817138671875 28.89509963989258 C 1043.887451171875 28.92329978942871 1043.96044921875 28.95219993591309 1044.041625976562 28.97459983825684 L 1044.041748046875 28.97459983825684 C 1044.1279296875 28.99824905395508 1044.2099609375 29.01010131835938 1044.289672851562 29.01010322570801 M 1039.027221679688 12.69296932220459 C 1039.071411132812 12.69296932220459 1039.115356445312 12.69889831542969 1039.158325195312 12.71079921722412 C 1039.318359375 12.75469970703125 1039.450317382812 12.87649917602539 1039.511352539062 13.03629970550537 L 1040.594848632812 15.87539958953857 C 1040.683349609375 16.1072998046875 1040.608642578125 16.36739921569824 1040.4130859375 16.50769996643066 L 1039.028442382812 17.5015983581543 C 1038.587768554688 17.81789970397949 1038.409790039062 18.40390014648438 1038.595458984375 18.92669868469238 C 1038.838134765625 19.60960006713867 1039.134521484375 20.27799987792969 1039.476440429688 20.91300010681152 C 1039.873046875 21.64939880371094 1040.333740234375 22.35029983520508 1040.845458984375 22.99639892578125 C 1041.00537109375 23.19789886474609 1041.218627929688 23.3401985168457 1041.462524414062 23.4069995880127 C 1041.56298828125 23.43463134765625 1041.665771484375 23.44833946228027 1041.768310546875 23.44833946228027 C 1041.941528320312 23.44833946228027 1042.11376953125 23.40926933288574 1042.272094726562 23.33219909667969 L 1043.720458984375 22.62729835510254 C 1043.78857421875 22.59418296813965 1043.86279296875 22.57735061645508 1043.9375 22.57735061645508 C 1043.98193359375 22.57735061645508 1044.026489257812 22.58329582214355 1044.070068359375 22.59529876708984 C 1044.178344726562 22.62489891052246 1044.27294921875 22.68879890441895 1044.343505859375 22.77929878234863 L 1046.194702148438 25.16059875488281 C 1046.340209960938 25.34779930114746 1046.349243164062 25.6132984161377 1046.21728515625 25.80639839172363 L 1044.6455078125 28.10209846496582 C 1044.567260742188 28.21649932861328 1044.445556640625 28.29449844360352 1044.311401367188 28.31659889221191 C 1044.304321289062 28.31779098510742 1044.296875 28.31838417053223 1044.288940429688 28.31838417053223 C 1044.268310546875 28.31838417053223 1044.244384765625 28.31435203552246 1044.214599609375 28.30639839172363 L 1044.21435546875 28.30629920959473 C 1044.16845703125 28.29349899291992 1044.115600585938 28.27249908447266 1044.059448242188 28.25 C 1043.989990234375 28.22229957580566 1043.911376953125 28.19079971313477 1043.8251953125 28.16709899902344 L 1043.807739257812 28.16269874572754 C 1043.794311523438 28.15909957885742 1043.780639648438 28.15539932250977 1043.766967773438 28.15169906616211 C 1041.89794921875 27.63809967041016 1039.26416015625 24.97690010070801 1037.640380859375 21.96139907836914 C 1036.238647460938 19.35849952697754 1035.558471679688 16.42409896850586 1035.67333984375 13.47519969940186 C 1035.683959960938 13.2081995010376 1035.876953125 12.9960994720459 1036.13232421875 12.97139930725098 L 1038.978149414062 12.69539928436279 C 1038.994506835938 12.69377994537354 1039.010864257812 12.69296932220459 1039.027221679688 12.69296932220459 M 1044.289672851562 29.31009864807129 C 1044.19580078125 29.31009864807129 1044.101928710938 29.29846000671387 1044.003662109375 29.27459907531738 L 1044.001098632812 29.27459907531738 L 1043.961791992188 29.26379013061523 C 1043.869018554688 29.23816871643066 1043.790771484375 29.20775985717773 1043.705444335938 29.17354011535645 C 1043.660522460938 29.15550994873047 1043.609497070312 29.13506889343262 1043.57275390625 29.12495994567871 L 1043.567138671875 29.12348937988281 L 1043.556762695312 29.12071990966797 C 1043.541625976562 29.11668968200684 1043.526245117188 29.11260986328125 1043.510986328125 29.10818862915039 C 1042.761108398438 28.90230941772461 1041.524658203125 28.31308937072754 1039.914916992188 26.68149948120117 C 1038.720458984375 25.47068977355957 1037.610473632812 23.96407890319824 1036.7890625 22.43915939331055 C 1035.302124023438 19.67803955078125 1034.580688476562 16.5645694732666 1034.70263671875 13.43531894683838 C 1034.732421875 12.67911911010742 1035.307373046875 12.05532932281494 1036.0400390625 11.98419952392578 L 1038.8857421875 11.70780944824219 C 1038.932250976562 11.7032995223999 1038.979370117188 11.70100975036621 1039.026000976562 11.70100975036621 C 1039.1552734375 11.70100975036621 1039.28466796875 11.71849918365479 1039.410400390625 11.75297927856445 C 1039.867431640625 11.87849903106689 1040.243530273438 12.2234992980957 1040.41650390625 12.67587947845459 L 1041.5 15.51574897766113 C 1041.751098632812 16.17411994934082 1041.534057617188 16.91563987731934 1040.972045898438 17.31901931762695 L 1039.58740234375 18.3130989074707 C 1039.504516601562 18.37255859375 1039.47216796875 18.4860897064209 1039.508666992188 18.58928871154785 C 1039.734130859375 19.2231388092041 1040.009643554688 19.84446907043457 1040.327514648438 20.43548965454102 C 1040.696899414062 21.12063980102539 1041.125366210938 21.77245903015137 1041.600830078125 22.37258911132812 C 1041.630981445312 22.41059875488281 1041.67041015625 22.43717956542969 1041.715209960938 22.44954872131348 C 1041.73193359375 22.4541187286377 1041.749633789062 22.45652008056641 1041.767456054688 22.45652008056641 C 1041.79736328125 22.45652008056641 1041.827392578125 22.44960021972656 1041.854370117188 22.4365291595459 L 1043.302124023438 21.73176002502441 C 1043.499145507812 21.63604927062988 1043.71875 21.58549880981445 1043.937377929688 21.58549880981445 C 1044.0673828125 21.58549880981445 1044.196899414062 21.60295867919922 1044.322387695312 21.63740921020508 C 1044.632934570312 21.72286987304688 1044.903198242188 21.90450859069824 1045.104125976562 22.16272926330566 L 1046.95556640625 24.54438018798828 C 1047.366088867188 25.0723991394043 1047.389770507812 25.8251895904541 1047.013427734375 26.37505912780762 L 1045.441650390625 28.67078018188477 C 1045.21337890625 29.00358009338379 1044.85791015625 29.23124885559082 1044.466430664062 29.29562950134277 C 1044.40869140625 29.30519866943359 1044.34912109375 29.31009864807129 1044.289672851562 29.31009864807129 Z M 1039.027221679688 12.99296951293945 C 1039.020751953125 12.99296951293945 1039.01416015625 12.99329948425293 1039.007690429688 12.99393939971924 L 1036.161254882812 13.26999950408936 C 1036.05517578125 13.28026962280273 1035.977783203125 13.36954975128174 1035.97314453125 13.48711967468262 C 1035.8603515625 16.38220977783203 1036.528198242188 19.26346015930176 1037.904541015625 21.81915855407715 C 1039.493530273438 24.77018928527832 1042.048095703125 27.36822891235352 1043.846435546875 27.86241912841797 L 1043.885375976562 27.87292861938477 L 1043.898559570312 27.87619972229004 L 1043.901611328125 27.87698936462402 L 1043.90478515625 27.87784004211426 C 1044.005859375 27.90565872192383 1044.095703125 27.94147872924805 1044.167846679688 27.97027015686035 C 1044.21044921875 27.98733520507812 1044.255249023438 28.00529098510742 1044.286743164062 28.01493453979492 C 1044.331176757812 28.00151062011719 1044.370727539062 27.97247314453125 1044.397827148438 27.9327392578125 L 1045.9697265625 25.63691902160645 C 1046.028076171875 25.5516300201416 1046.023071289062 25.42864990234375 1045.957885742188 25.3447093963623 L 1044.106689453125 22.96342849731445 C 1044.075805664062 22.92379951477051 1044.036743164062 22.8971996307373 1043.990966796875 22.88467979431152 C 1043.97314453125 22.87975883483887 1043.955322265625 22.87734985351562 1043.9375 22.87734985351562 C 1043.907836914062 22.87734985351562 1043.878173828125 22.88416862487793 1043.851684570312 22.89705848693848 L 1042.4033203125 23.60194969177246 C 1042.206665039062 23.69771957397461 1041.987060546875 23.74833869934082 1041.768310546875 23.74833869934082 C 1041.63818359375 23.74833869934082 1041.508544921875 23.73081016540527 1041.382934570312 23.69624900817871 C 1041.077880859375 23.61270904541016 1040.810668945312 23.43515968322754 1040.610473632812 23.18289947509766 C 1040.087280273438 22.52229881286621 1039.616943359375 21.8065299987793 1039.212280273438 21.05525016784668 C 1038.863403320312 20.40714836120605 1038.560668945312 19.72480964660645 1038.312744140625 19.02715873718262 C 1038.082641601562 18.37909889221191 1038.305053710938 17.65157890319824 1038.853515625 17.25787925720215 L 1040.238159179688 16.26398849487305 C 1040.323120117188 16.20298004150391 1040.354614257812 16.08720016479492 1040.314575195312 15.9823694229126 L 1039.231079101562 13.14325904846191 C 1039.203979492188 13.07234954833984 1039.147094726562 13.01880931854248 1039.078979492188 13.00010967254639 C 1039.061645507812 12.9953088760376 1039.04443359375 12.99296951293945 1039.027221679688 12.99296951293945 Z"/></g></g></svg>