<svg xmlns="http://www.w3.org/2000/svg" viewBox="0 0 18.588 18.593">
  <defs>
    <style>
      .cls-1, .cls-3 {
        fill: #898989;
      }

      .cls-2, .cls-3 {
        stroke: none;
      }
    </style>
  </defs>
  <g id="Magnifier" class="cls-1" transform="translate(-1075.7 -79.7)">
    <path class="cls-2" d="M 1093.428955078125 98.14290618896484 C 1093.23974609375 98.14290618896484 1093.061401367188 98.06880950927734 1092.926879882812 97.93426513671875 L 1087.5849609375 92.53935241699219 C 1086.301879882812 93.61766052246094 1084.679321289062 94.20990753173828 1082.999755859375 94.20990753173828 C 1079.0576171875 94.20990753173828 1075.850341796875 90.989013671875 1075.850341796875 87.02999877929688 C 1075.850341796875 83.07098388671875 1079.0576171875 79.85009765625 1082.999755859375 79.85009765625 C 1086.9423828125 79.85009765625 1090.14990234375 83.07098388671875 1090.14990234375 87.02999877929688 C 1090.14990234375 88.66151428222656 1089.593139648438 90.25052642822266 1088.57958984375 91.52021026611328 L 1093.931518554688 96.92707824707031 C 1094.207763671875 97.20447540283203 1094.207763671875 97.65633392333984 1093.931274414062 97.93403625488281 C 1093.796264648438 98.06883239746094 1093.618041992188 98.14290618896484 1093.428955078125 98.14290618896484 Z M 1082.999755859375 81.25980377197266 C 1079.8349609375 81.25980377197266 1077.260131835938 83.84830474853516 1077.260131835938 87.02999877929688 C 1077.260131835938 90.21169281005859 1079.8349609375 92.80020904541016 1082.999755859375 92.80020904541016 C 1086.1650390625 92.80020904541016 1088.740234375 90.21169281005859 1088.740234375 87.02999877929688 C 1088.740234375 83.84830474853516 1086.1650390625 81.25980377197266 1082.999755859375 81.25980377197266 Z"/>
    <path class="cls-3" d="M 1093.428955078125 97.99290466308594 C 1093.578002929688 97.99290466308594 1093.718627929688 97.93441772460938 1093.824951171875 97.82820892333984 C 1094.043334960938 97.60885620117188 1094.043334960938 97.251953125 1093.824951171875 97.0325927734375 L 1088.378173828125 91.52999877929688 C 1089.423950195312 90.27027893066406 1089.999877929688 88.67214202880859 1089.999877929688 87.02999877929688 C 1089.999877929688 83.15369415283203 1086.859619140625 80.00009918212891 1082.999755859375 80.00009918212891 C 1079.140258789062 80.00009918212891 1076.000366210938 83.15369415283203 1076.000366210938 87.02999877929688 C 1076.000366210938 90.90630340576172 1079.140258789062 94.05990600585938 1082.999755859375 94.05990600585938 C 1084.689453125 94.05990600585938 1086.321411132812 93.44720458984375 1087.593383789062 92.33460235595703 L 1093.032958984375 97.82820892333984 C 1093.13916015625 97.93441772460938 1093.27978515625 97.99290466308594 1093.428955078125 97.99290466308594 M 1082.999755859375 81.10980224609375 C 1086.247802734375 81.10980224609375 1088.890258789062 83.76559448242188 1088.890258789062 87.02999877929688 C 1088.890258789062 90.29440307617188 1086.247802734375 92.95020294189453 1082.999755859375 92.95020294189453 C 1079.752197265625 92.95020294189453 1077.110107421875 90.29440307617188 1077.110107421875 87.02999877929688 C 1077.110107421875 83.76559448242188 1079.752197265625 81.10980224609375 1082.999755859375 81.10980224609375 M 1093.428955078125 98.29290771484375 C 1093.19970703125 98.29290771484375 1092.983642578125 98.20320892333984 1092.82080078125 98.04032897949219 L 1087.574829101562 92.7421875 C 1086.281982421875 93.78734588623047 1084.668334960938 94.35990905761719 1082.999755859375 94.35990905761719 C 1078.974853515625 94.35990905761719 1075.700317382812 91.07172393798828 1075.700317382812 87.02999877929688 C 1075.700317382812 82.98827362060547 1078.974853515625 79.70009613037109 1082.999755859375 79.70009613037109 C 1087.025024414062 79.70009613037109 1090.299926757812 82.98827362060547 1090.299926757812 87.02999877929688 C 1090.299926757812 88.65076446533203 1089.76171875 90.23042297363281 1088.779174804688 91.50864410400391 L 1094.038208007812 96.82154846191406 C 1094.3720703125 97.15700531005859 1094.3720703125 97.70381927490234 1094.03759765625 98.03986358642578 C 1093.8740234375 98.2032470703125 1093.658081054688 98.29290771484375 1093.428955078125 98.29290771484375 Z M 1082.999755859375 81.40980529785156 C 1079.917602539062 81.40980529785156 1077.41015625 83.93101501464844 1077.41015625 87.02999877929688 C 1077.41015625 90.12898254394531 1079.917602539062 92.65020751953125 1082.999755859375 92.65020751953125 C 1086.082397460938 92.65020751953125 1088.590209960938 90.12898254394531 1088.590209960938 87.02999877929688 C 1088.590209960938 83.93101501464844 1086.082397460938 81.40980529785156 1082.999755859375 81.40980529785156 Z"/>
  </g>
</svg>
