<svg xmlns="http://www.w3.org/2000/svg" viewBox="0 0 16.002 16.009">
  <defs>
    <style>
      .cls-1 {
        fill: #3a3a3a;
      }
    </style>
  </defs>
  <path id="Shape_637" data-name="Shape 637" class="cls-1" d="M759.93,807a1.5,1.5,0,0,0-1.34-1.071l-3.823-.2L753.392,802a1.468,1.468,0,0,0-2.782,0l-1.362,3.729-3.837.2a1.514,1.514,0,0,0-1.34,1.071,1.6,1.6,0,0,0,.481,1.689l2.978,2.5-.992,3.864a1.59,1.59,0,0,0,.565,1.656,1.463,1.463,0,0,0,1.687.046l3.2-2.175,3.218,2.175a1.463,1.463,0,0,0,1.691-.046,1.6,1.6,0,0,0,.561-1.656l-1-3.855,2.982-2.514A1.608,1.608,0,0,0,759.93,807Zm-2.764,1.345-1.651,1.4a2.027,2.027,0,0,0-.641,2.055l.552,2.138a.424.424,0,0,1-.151.445.389.389,0,0,1-.454.014l-1.78-1.211a1.883,1.883,0,0,0-2.074,0l-1.785,1.211a.381.381,0,0,1-.218.07.412.412,0,0,1-.236-.079.443.443,0,0,1-.151-.45l.552-2.138a2.033,2.033,0,0,0-.641-2.055l-1.651-1.4a.419.419,0,0,1-.129-.45.4.4,0,0,1,.352-.292l2.132-.111a1.915,1.915,0,0,0,1.673-1.271l.766-2.074a.393.393,0,0,1,.743,0l.766,2.074a1.916,1.916,0,0,0,1.678,1.271l2.123.111a.409.409,0,0,1,.36.292A.426.426,0,0,1,757.166,808.349Z" transform="translate(-743.999 -801.001)"/>
</svg>
